<svg width="450" height="450" viewBox="0 0 450 450" fill="none" xmlns="http://www.w3.org/2000/svg">
<path d="M161.596 104.818C95.4483 104.818 41.8254 158.441 41.8254 224.589C41.8254 290.736 95.4483 344.359 161.596 344.359C192.599 344.359 220.852 332.579 242.121 313.25L258.398 295.131C272.842 275.345 281.367 250.962 281.367 224.589C281.366 158.441 227.743 104.818 161.596 104.818Z" fill="#218207"/>
<path d="M193.3 312.655C127.152 312.655 73.5293 259.032 73.5293 192.885C73.5293 167.913 81.1881 144.74 94.2609 125.55C62.6168 147.106 41.8254 183.413 41.8254 224.589C41.8254 290.736 95.4483 344.359 161.596 344.359C202.772 344.359 239.078 323.568 260.634 291.923C241.444 304.996 218.271 312.655 193.3 312.655Z" fill="#F3F6CB"/>
<path d="M341.314 375.726C348.058 378.479 355.568 378.479 362.311 375.727C390.009 364.424 443.408 334.066 443.408 270.824V269.989C443.408 237.32 422.26 207.642 390.758 198.989C378.884 195.727 367.47 195.732 356.886 198.019C353.529 198.744 350.098 198.744 346.741 198.018C336.143 195.728 324.7 195.728 312.811 199.007C281.335 207.689 260.224 237.369 260.224 270.021V270.824C260.223 334.065 313.62 364.422 341.314 375.726Z" fill="#845252"/>
<path d="M281.359 258.528V257.726C281.359 235.419 291.223 214.511 307.502 200.725C278.989 211.126 260.223 239.245 260.223 270.022V270.824C260.223 334.065 313.62 364.423 341.314 375.726C348.058 378.479 355.568 378.479 362.312 375.726C366.094 374.183 370.381 372.246 374.921 369.956C352.414 362.319 281.359 329.839 281.359 258.528Z" fill="#F3F6CB"/>
<path d="M63.4078 224.589C63.4078 228.229 66.3592 231.18 69.9996 231.18H91.1356C94.776 231.18 97.7274 228.229 97.7274 224.589C97.7274 220.948 94.776 217.997 91.1356 217.997H69.9996C66.3592 217.997 63.4078 220.948 63.4078 224.589Z" fill="black"/>
<path d="M245.679 224.589C245.679 220.948 242.728 217.997 239.087 217.997H232.042C228.401 217.997 225.45 220.948 225.45 224.589C225.45 228.229 228.401 231.18 232.042 231.18H239.087C242.728 231.18 245.679 228.229 245.679 224.589Z" fill="black"/>
<path d="M237.177 325.85C239.282 324.279 241.345 322.641 243.356 320.933C246.131 318.575 246.469 314.416 244.112 311.641C241.755 308.866 237.595 308.528 234.82 310.885C214.414 328.221 188.407 337.767 161.589 337.767C99.1819 337.767 48.4102 286.995 48.4102 224.589C48.4102 162.182 99.1819 111.41 161.589 111.41C209.719 111.41 252.685 141.931 268.502 187.356C269.699 190.795 273.458 192.611 276.895 191.414C280.333 190.217 282.15 186.459 280.953 183.022C280.878 182.806 280.798 182.594 280.722 182.378L307.31 171.365C310.674 169.972 312.271 166.115 310.878 162.752C309.485 159.39 305.627 157.793 302.266 159.185L275.677 170.198C274 166.681 272.171 163.262 270.197 159.949L294.127 143.959C297.154 141.936 297.968 137.843 295.945 134.815C293.923 131.788 289.83 130.974 286.802 132.997L262.865 148.991C260.538 145.879 258.074 142.886 255.485 140.016L275.85 119.651C278.424 117.076 278.424 112.903 275.85 110.329C273.276 107.755 269.102 107.755 266.528 110.329L246.159 130.699C243.276 128.107 240.276 125.652 237.173 123.337L253.183 99.3762C255.205 96.3492 254.391 92.2553 251.365 90.2329C248.338 88.2097 244.244 89.0244 242.221 92.0514L226.209 116.015C222.884 114.036 219.468 112.206 215.967 110.535L226.995 83.9127C228.388 80.5491 226.791 76.6934 223.428 75.3003C220.063 73.9072 216.208 75.5042 214.815 78.8678L203.788 105.489C200.15 104.198 196.442 103.07 192.674 102.113L198.294 73.8562C199.005 70.2861 196.686 66.8153 193.115 66.1052C189.542 65.3959 186.074 67.7144 185.364 71.2846L179.743 99.5405C175.932 98.9877 172.076 98.6071 168.182 98.4041V69.5918C168.182 65.9514 165.231 63 161.59 63C157.95 63 154.999 65.9514 154.999 69.5918V98.3979C151.095 98.5992 147.24 98.9868 143.437 99.5361L137.817 71.2846C137.107 67.7144 133.638 65.3959 130.066 66.1052C126.496 66.8153 124.176 70.2861 124.886 73.8562L130.504 102.1C126.729 103.059 123.022 104.192 119.39 105.482L108.366 78.8669C106.973 75.5033 103.115 73.9063 99.7532 75.2994C96.3896 76.6925 94.7927 80.5491 96.1857 83.9118L107.214 110.537C103.712 112.214 100.3 114.05 96.9838 116.032L80.9596 92.0505C78.9372 89.0235 74.8441 88.2088 71.8163 90.232C68.7894 92.2544 67.9755 96.3475 69.9978 99.3753L86.0282 123.367C82.9266 125.688 79.9383 128.152 77.066 130.742L56.6525 110.328C54.0782 107.754 49.9043 107.754 47.3309 110.328C44.7565 112.903 44.7565 117.076 47.3309 119.65L67.7443 140.063C65.1542 142.936 62.6906 145.925 60.3694 149.026L36.3779 132.995C33.351 130.972 29.257 131.787 27.2347 134.814C25.2123 137.841 26.0262 141.935 29.0531 143.957L53.035 159.981C51.0539 163.297 49.217 166.709 47.5409 170.212L20.9153 159.183C17.5509 157.791 13.696 159.387 12.3029 162.751C10.9099 166.114 12.5068 169.97 15.8704 171.363L42.4854 182.387C41.1943 186.02 40.0614 189.726 39.1034 193.502L10.8598 187.884C7.28701 187.173 3.81885 189.493 3.10869 193.063C2.39854 196.633 4.71709 200.104 8.28809 200.814L36.5396 206.434C35.9903 210.237 35.6027 214.092 35.4015 217.996H6.5918C2.95137 217.996 0 220.947 0 224.588C0 228.228 2.95137 231.18 6.5918 231.18H35.3979C35.5992 235.084 35.9868 238.939 36.5361 242.742L8.28457 248.361C4.71445 249.071 2.39502 252.542 3.10518 256.112C3.7292 259.249 6.48281 261.419 9.56338 261.419C9.98965 261.419 10.4229 261.378 10.8562 261.291L39.0999 255.673C40.0588 259.449 41.1917 263.155 42.4819 266.788L15.8669 277.812C12.5033 279.205 10.9063 283.061 12.2994 286.424C13.3506 288.962 15.8054 290.495 18.392 290.495C19.2331 290.495 20.0874 290.334 20.9118 289.992L47.5374 278.963C49.2144 282.466 51.0504 285.877 53.0314 289.194L29.0514 305.22C26.0244 307.242 25.2105 311.335 27.2329 314.363C28.5038 316.265 30.5921 317.293 32.7199 317.293C33.9785 317.293 35.2512 316.933 36.3762 316.181L60.3677 300.151C62.6889 303.253 65.1533 306.241 67.7426 309.113L47.3291 329.527C44.7548 332.101 44.7548 336.275 47.3291 338.848C48.6158 340.135 50.3033 340.779 51.9899 340.779C53.6766 340.779 55.3641 340.136 56.6508 338.848L77.0643 318.435C79.9365 321.025 82.9257 323.488 86.0265 325.81L69.9961 349.801C67.9737 352.828 68.7876 356.922 71.8145 358.944C72.9395 359.696 74.2122 360.056 75.4708 360.056C77.5986 360.056 79.6869 359.028 80.9578 357.126L96.982 333.144C100.298 335.125 103.71 336.962 107.212 338.639L96.184 365.265C94.7909 368.628 96.3879 372.484 99.7515 373.877C100.577 374.219 101.431 374.381 102.271 374.381C104.858 374.381 107.313 372.848 108.364 370.31L119.388 343.695C123.021 344.986 126.727 346.119 130.503 347.077L124.885 375.32C124.175 378.891 126.493 382.361 130.064 383.071C130.498 383.157 130.931 383.2 131.357 383.2C134.438 383.2 137.191 381.029 137.815 377.893L143.435 349.641C147.238 350.191 151.093 350.578 154.997 350.779V379.586C154.997 383.226 157.948 386.177 161.589 386.177C165.229 386.177 168.18 383.226 168.18 379.586V350.771C172.06 350.568 175.917 350.187 179.74 349.631L185.361 377.893C185.985 381.03 188.739 383.2 191.82 383.2C192.246 383.2 192.679 383.158 193.112 383.071C196.682 382.361 199.002 378.89 198.292 375.32L192.67 347.058C196.428 346.104 200.136 344.978 203.785 343.686L214.813 370.309C215.864 372.847 218.319 374.38 220.905 374.38C221.746 374.38 222.601 374.218 223.425 373.876C226.789 372.483 228.386 368.626 226.992 365.264L215.967 338.645C219.459 336.981 222.878 335.153 226.212 333.171L242.219 357.126C243.49 359.028 245.578 360.056 247.706 360.056C248.964 360.056 250.237 359.696 251.362 358.944C254.389 356.922 255.203 352.829 253.18 349.801L237.177 325.85Z" fill="black"/>
<path d="M168.18 133C168.18 129.359 165.229 126.408 161.589 126.408C157.948 126.408 154.997 129.359 154.997 133V154.136C154.997 157.776 157.948 160.727 161.589 160.727C165.229 160.727 168.18 157.776 168.18 154.136V133Z" fill="black"/>
<path d="M168.18 182.317C168.18 178.676 165.229 175.725 161.589 175.725C157.948 175.725 154.997 178.676 154.997 182.317V196.407C154.997 200.048 157.948 202.999 161.589 202.999C165.229 202.999 168.18 200.048 168.18 196.407V182.317Z" fill="black"/>
<path d="M168.18 252.77C168.18 249.129 165.229 246.178 161.589 246.178C157.948 246.178 154.997 249.129 154.997 252.77V266.861C154.997 270.501 157.948 273.452 161.589 273.452C165.229 273.452 168.18 270.501 168.18 266.861V252.77Z" fill="black"/>
<path d="M161.589 288.45C157.948 288.45 154.997 291.401 154.997 295.042V316.178C154.997 319.818 157.948 322.77 161.589 322.77C165.229 322.77 168.18 319.818 168.18 316.178V295.042C168.18 291.401 165.229 288.45 161.589 288.45Z" fill="black"/>
<path d="M96.8256 295.944C98.5122 295.944 100.2 295.3 101.486 294.013L116.431 279.068C119.006 276.493 119.006 272.319 116.431 269.746C113.857 267.172 109.683 267.172 107.11 269.746L92.1647 284.691C89.5904 287.265 89.5904 291.439 92.1647 294.013C93.4515 295.3 95.139 295.944 96.8256 295.944Z" fill="black"/>
<path d="M216.068 179.432L231.013 164.487C233.587 161.913 233.587 157.739 231.013 155.166C228.438 152.591 224.264 152.591 221.691 155.166L206.746 170.111C204.172 172.685 204.172 176.859 206.746 179.432C208.033 180.719 209.72 181.363 211.407 181.363C213.093 181.363 214.781 180.719 216.068 179.432Z" fill="black"/>
<path d="M111.771 181.362C113.457 181.362 115.145 180.719 116.431 179.431C119.006 176.857 119.006 172.683 116.431 170.11L101.486 155.165C98.9121 152.59 94.7382 152.59 92.1647 155.165C89.5904 157.739 89.5904 161.913 92.1647 164.486L107.11 179.431C108.397 180.719 110.084 181.362 111.771 181.362Z" fill="black"/>
<path d="M221.691 294.013C222.978 295.299 224.665 295.944 226.352 295.944C228.038 295.944 229.726 295.3 231.013 294.013C233.587 291.438 233.587 287.264 231.013 284.691L216.068 269.746C213.493 267.172 209.319 267.172 206.746 269.746C204.172 272.32 204.172 276.494 206.746 279.068L221.691 294.013Z" fill="black"/>
<path d="M76.9737 266.232C77.8148 266.232 78.6691 266.07 79.4936 265.729L99.0211 257.64C102.385 256.247 103.982 252.39 102.589 249.028C101.195 245.664 97.338 244.068 93.9762 245.46L74.4486 253.549C71.0851 254.942 69.4881 258.798 70.8812 262.161C71.9332 264.699 74.3871 266.232 76.9737 266.232Z" fill="black"/>
<path d="M252.296 187.016C250.903 183.653 247.047 182.057 243.684 183.449L224.156 191.537C220.793 192.93 219.196 196.787 220.589 200.15C221.641 202.688 224.095 204.221 226.681 204.221C227.522 204.221 228.377 204.059 229.201 203.717L248.729 195.629C252.092 194.236 253.689 190.38 252.296 187.016Z" fill="black"/>
<path d="M134.63 166.092C135.471 166.092 136.325 165.93 137.15 165.589C140.513 164.196 142.11 160.339 140.717 156.976L132.629 137.449C131.236 134.085 127.378 132.488 124.016 133.881C120.653 135.274 119.056 139.131 120.449 142.494L128.537 162.021C129.589 164.559 132.043 166.092 134.63 166.092Z" fill="black"/>
<path d="M190.549 311.729C191.601 314.267 194.055 315.8 196.641 315.8C197.482 315.8 198.337 315.638 199.161 315.296C202.525 313.903 204.122 310.046 202.729 306.684L194.64 287.156C193.246 283.793 189.389 282.196 186.028 283.589C182.664 284.982 181.067 288.838 182.46 292.201L190.549 311.729Z" fill="black"/>
<path d="M124.016 315.296C124.841 315.638 125.696 315.8 126.536 315.8C129.123 315.8 131.578 314.267 132.629 311.729L140.717 292.201C142.11 288.838 140.513 284.982 137.15 283.589C133.786 282.196 129.93 283.793 128.537 287.156L120.449 306.684C119.056 310.046 120.653 313.903 124.016 315.296Z" fill="black"/>
<path d="M188.547 166.092C191.134 166.092 193.589 164.559 194.64 162.021L202.729 142.494C204.122 139.13 202.525 135.274 199.161 133.881C195.798 132.488 191.942 134.085 190.549 137.449L182.46 156.976C181.067 160.34 182.664 164.196 186.028 165.589C186.852 165.93 187.706 166.092 188.547 166.092Z" fill="black"/>
<path d="M70.8812 187.016C69.4881 190.38 71.0851 194.236 74.4486 195.629L93.9762 203.717C94.8006 204.059 95.6558 204.221 96.496 204.221C99.0826 204.221 101.537 202.688 102.589 200.15C103.982 196.786 102.385 192.93 99.0211 191.537L79.4936 183.449C76.1309 182.055 72.2742 183.653 70.8812 187.016Z" fill="black"/>
<path d="M238.132 256.294C239.525 252.931 237.928 249.075 234.564 247.681L229.201 245.459C225.836 244.067 221.982 245.663 220.588 249.027C219.195 252.39 220.792 256.246 224.155 257.64L229.518 259.862C230.344 260.204 231.198 260.365 232.039 260.365C234.626 260.365 237.081 258.833 238.132 256.294Z" fill="black"/>
<path d="M210.452 224.589C210.452 220.948 207.501 217.997 203.861 217.997H189.77C186.129 217.997 183.178 220.948 183.178 224.589C183.178 228.229 186.129 231.18 189.77 231.18H203.861C207.501 231.18 210.452 228.229 210.452 224.589Z" fill="black"/>
<path d="M133.407 231.18C137.048 231.18 139.999 228.229 139.999 224.589C139.999 220.948 137.048 217.997 133.407 217.997H119.317C115.676 217.997 112.725 220.948 112.725 224.589C112.725 228.229 115.676 231.18 119.317 231.18H133.407Z" fill="black"/>
<path d="M176.855 209.322C178.142 210.609 179.829 211.253 181.516 211.253C183.203 211.253 184.89 210.61 186.177 209.322L196.14 199.359C198.715 196.784 198.715 192.611 196.14 190.037C193.566 187.463 189.392 187.463 186.819 190.037L176.855 200C174.28 202.575 174.28 206.749 176.855 209.322Z" fill="black"/>
<path d="M146.322 239.855C143.748 237.281 139.574 237.281 137 239.855L127.037 249.819C124.463 252.393 124.463 256.567 127.037 259.14C128.324 260.427 130.011 261.071 131.698 261.071C133.385 261.071 135.072 260.428 136.359 259.14L146.322 249.177C148.897 246.603 148.897 242.429 146.322 239.855Z" fill="black"/>
<path d="M176.855 249.177L186.819 259.14C188.105 260.427 189.793 261.071 191.479 261.071C193.166 261.071 194.854 260.428 196.14 259.14C198.715 256.566 198.715 252.392 196.14 249.819L186.177 239.855C183.603 237.281 179.429 237.281 176.855 239.855C174.28 242.429 174.28 246.603 176.855 249.177Z" fill="black"/>
<path d="M146.322 200L136.359 190.037C133.784 187.463 129.611 187.463 127.037 190.037C124.463 192.611 124.463 196.785 127.037 199.359L137 209.322C138.287 210.609 139.975 211.253 141.661 211.253C143.348 211.253 145.035 210.61 146.322 209.322C148.897 206.749 148.897 202.575 146.322 200Z" fill="black"/>
<path d="M371.854 189.816C365.159 189.816 358.427 190.705 351.814 192.463C345.205 190.705 338.475 189.816 331.778 189.816C288.688 189.816 253.632 224.872 253.632 267.962V270.824C253.632 303.937 267.186 332.252 293.916 354.98C315.843 373.623 340.291 382.784 349.784 385.857C350.443 386.07 351.128 386.177 351.814 386.177C352.499 386.177 353.184 386.07 353.843 385.857C363.337 382.785 387.787 373.626 409.716 354.981C436.446 332.253 450 303.938 450 270.824V267.962C450 224.872 414.944 189.816 371.854 189.816ZM436.816 270.824C436.816 299.893 424.825 324.828 401.176 344.936C382.451 360.856 361.664 369.263 351.813 372.637C341.962 369.262 321.177 360.854 302.455 344.936C278.806 324.828 266.815 299.892 266.815 270.823V267.961C266.815 232.14 295.957 202.998 331.777 202.998C336.255 202.998 340.759 203.483 345.22 204.438V344.358C345.22 347.999 348.172 350.95 351.812 350.95C355.453 350.95 358.404 347.999 358.404 344.358V204.44C362.871 203.485 367.376 202.999 371.853 202.999C407.674 202.999 436.816 232.141 436.816 267.962V270.824H436.816Z" fill="black"/>
</svg>
