<svg width="60" height="60" viewBox="0 0 60 60" fill="none" xmlns="http://www.w3.org/2000/svg">
<g clip-path="url(#clip0_6_2)">
<path d="M51.2132 8.78684C45.5469 3.12047 38.0132 0 30 0C21.9868 0 14.4531 3.12047 8.78684 8.78684C3.12047 14.4531 0 21.9868 0 30C0 38.0132 3.12047 45.5469 8.78684 51.2132C14.4531 56.8795 21.9868 60 30 60C38.0132 60 45.5469 56.8795 51.2132 51.2132C56.8794 45.5468 60 38.0132 60 30C60 21.9868 56.8795 14.4531 51.2132 8.78684ZM30 58.1053C14.5027 58.1053 1.89469 45.4973 1.89469 30C1.89469 14.5027 14.5027 1.89469 30 1.89469C45.4973 1.89469 58.1053 14.5027 58.1053 30C58.1053 45.4973 45.4973 58.1053 30 58.1053Z" fill="#00935B"/>
<path d="M46.9909 11.559C46.7001 11.3399 46.3092 11.3071 45.9858 11.4744L9.35417 30.4218C9.03753 30.5855 8.8396 30.9132 8.84194 31.2697C8.84428 31.6262 9.04667 31.9512 9.36565 32.1107L18.9474 36.9013V46.3942C18.9474 46.6426 19.0319 46.8885 19.2028 47.0688C19.392 47.2684 19.6433 47.3685 19.8948 47.3685C20.0533 47.3685 20.2117 47.3289 20.355 47.2492L31.3172 41.1591L39.7075 44.7548C39.886 44.8314 40.0835 44.863 40.2746 44.8274C40.6677 44.7539 40.96 44.4527 41.0345 44.0807L43.1574 33.4662C43.2746 32.8799 42.8262 32.333 42.2283 32.333C41.7767 32.3327 41.388 32.6515 41.2994 33.0942L39.4054 42.5639L31.6364 39.2344C31.3673 39.1189 31.0595 39.1348 30.8031 39.2769L20.8422 44.8109V36.3157C20.8422 35.9569 20.6394 35.629 20.3185 35.4683L11.8792 31.2487L45.1054 14.0627L42.222 28.4795C42.1048 29.0658 42.5532 29.6127 43.151 29.6127C43.6026 29.6127 43.9914 29.2938 44.0801 28.8511L47.35 12.5014C47.4214 12.1445 47.2818 11.778 46.9909 11.559Z" fill="#00935B"/>
<path d="M40.8487 19.3075C40.551 18.9306 40.018 18.8359 39.6088 19.088L23.1878 29.1933C22.9076 29.3657 22.7369 29.6712 22.7369 30.0001V40.1054C22.7368 40.5449 23.0389 40.9264 23.4664 41.0275C23.5392 41.0447 23.6122 41.053 23.6844 41.053C24.0368 41.053 24.3684 40.8554 24.5314 40.5292L28.2521 33.0878L40.7751 20.5648C41.1149 20.2249 41.1465 19.6846 40.8487 19.3075ZM26.8037 31.8565C26.7319 31.9284 26.6719 32.0116 26.6264 32.1027L24.6316 36.0921V30.5294L33.7296 24.9306L26.8037 31.8565Z" fill="#00935B"/>
</g>
<defs>
<clipPath id="clip0_6_2">
<rect width="60" height="60" fill="white"/>
</clipPath>
</defs>
</svg>
