<svg width="120" height="120" viewBox="0 0 120 120" fill="none" xmlns="http://www.w3.org/2000/svg">
<path d="M110.672 54.8437C110.672 54.5859 110.672 54.3984 110.578 54.1406L110.484 53.6953C110.484 53.5078 110.391 53.3437 110.297 53.1562C110.039 52.4531 109.664 51.8203 108.961 51.4687C108.328 51.1172 107.625 51.0234 106.922 51.2109L105.492 51.5625C103.992 51.5625 103.617 53.25 89.7656 51.3047C86.8359 50.8594 83.9062 50.5078 81.0469 50.3203C80.25 50.3203 79.4531 50.3203 78.7266 50.3203C94.7344 43.0312 98.9062 25.2422 91.5234 9.79687C91.3359 9.53906 91.2656 9.16406 91.0781 8.90625C87.7031 2.41406 86.5547 6.23437 84.9375 7.40625C81.0234 12.6562 69.1172 15.3984 62.625 21.2812C61.6406 22.0781 60.8438 23.1562 60.0469 24.1172C59.25 25.1953 58.6172 26.25 58.1016 27.3984C57.8437 28.0312 57.5625 28.6406 57.3047 29.2734C57.3047 29.1797 57.2109 29.0156 57.2109 28.9219C56.5078 25.2891 54.6328 21.6328 52.3125 18.0703C49.5469 13.9922 45.5625 9.35156 41.9062 5.71875C41.5547 5.36718 41.2031 5.01562 40.8281 4.64062L40.2891 4.10156L40.1016 3.91406C40.0078 3.82031 39.9141 3.72656 39.8437 3.65625C39.6562 3.46875 39.4922 3.39843 39.2109 3.21093C38.4141 2.76562 37.3359 2.67187 36.4453 3.02343C35.5547 3.375 34.8516 4.10156 34.5 4.96875L34.3125 5.41406C34.3125 5.50781 34.2188 5.60156 34.2188 5.67187C34.125 5.85937 34.0312 6.02343 33.9609 6.30468C32.625 9.23437 30.4922 12 29.3437 15.4687C26.0625 25.5234 32.8125 38.9297 37.7812 48.2578C38.4844 49.5937 39.1172 50.8359 39.8203 51.9844C39.2812 51.4453 38.7422 50.9062 38.2266 50.4844C36.6328 49.1484 35.0156 48 33.4219 47.1094C26.0391 43.0312 14.0391 40.8047 11.2969 40.9687C10.5937 40.9687 10.0547 41.1562 9.70313 41.3203C9.07031 41.5781 9.07031 41.9531 9.07031 42.1172C9.16406 42.375 9.25781 42.5625 9.77344 42.75C10.4062 42.9375 11.3672 43.0078 13.5 43.7344C18.6562 45.3281 25.4062 46.6641 31.5469 50.2266C34.3125 51.8203 37.2422 54.1406 39.5391 57.5156C41.9297 60.8906 43.7109 65.4375 44.3437 66.5859V66.6797C44.3437 66.6797 44.3438 66.6797 44.25 66.6797H44.0625L43.5234 66.7734C42.8203 66.9609 42.0234 66.9609 41.2031 67.0312C22.7578 67.9219 17.3437 50.6719 15.375 47.6484C14.2266 45.7734 12.7969 44.5312 11.7422 43.9219C10.6875 43.3125 9.96094 43.2187 9.96094 43.2891C9.86719 43.4766 10.5 43.7344 11.3906 44.4375C12.2812 45.1406 13.3359 46.4766 14.2266 48.2578C15.3047 50.3906 20.5313 70.7578 41.7891 70.5703C42.6797 70.4766 43.5703 70.4766 44.4609 70.3828C45 70.2891 45.6094 70.1953 46.1484 70.125C46.5937 70.0312 46.9453 69.9375 47.2969 69.6797C47.1094 69.9375 46.9453 70.2187 46.6641 70.6641C41.9531 79.1016 34.8516 98.7422 34.125 113.32C34.0312 115.547 34.125 116.883 34.3828 116.953C34.6406 116.953 35.0156 115.711 35.5312 113.578C41.6719 89.5781 45.75 82.7344 48.6797 72.8672C49.125 73.2187 50.3672 73.7578 52.0547 74.4609C53.2031 75 54.4453 75.6094 55.875 76.3359C57.3047 77.1328 58.7109 78.0234 59.9531 79.2656C61.1953 80.4141 62.2734 82.0312 63.5859 83.625C64.2187 84.4219 64.9219 85.2187 65.8125 86.0156C66.6094 86.7187 67.5938 87.4453 68.5781 87.8906C70.5234 88.9687 72.5859 89.3906 74.4375 89.6719C76.9922 89.9531 79.3125 90.2109 81.8203 89.9297C84.375 89.2969 84.5625 86.2969 82.4531 84.9609C81.4453 84.0234 80.8125 82.8516 80.4141 81.4922C80.0625 80.25 80.2266 78.5625 79.5234 76.875C79.2656 76.3359 78.9844 75.8906 78.6328 75.4453C79.5234 75.7031 80.4141 75.8906 81.3984 76.0781C82.1953 76.2656 82.9922 76.3359 83.7891 76.4297C84.5859 76.5234 85.4766 76.5234 86.2734 76.5234C98.3672 76.3359 109.031 67.0078 110.461 57.6797C110.672 56.7891 110.766 55.8281 110.672 54.8437ZM58.5 34.9219C59.6484 30.5625 61.3359 26.2969 64.7109 23.5547C70.9219 18.1406 79.7344 17.25 86.9297 10.4766L87.4687 9.9375L87.5625 9.84375L87.9141 10.4766C97.1484 30.2109 90.3984 40.6172 70.8516 50.2969C68.1797 51.5391 66.1406 52.875 64.6406 54.0234C61.6172 56.3437 60.375 57.9375 59.7422 58.8281C59.2969 59.5312 59.2969 59.8125 59.3906 59.9766C59.2031 59.9766 58.9453 59.9766 58.5937 60.1641C57.7969 60.5156 56.2031 61.2422 53.4375 63.1875C52.8047 63.6328 52.1016 64.1719 51.3047 64.875C51.2109 64.7812 51.1172 64.6875 51.0469 64.5234C51.0469 64.3359 50.9531 64.2656 50.9531 64.0781C53.0859 57.4219 54.1641 54.3047 55.7578 49.3125C56.5547 46.3828 57.4453 43.0078 57.7969 39L58.0547 36.5156V36.6094C58.2187 36 58.4062 35.4609 58.5 34.9219ZM32.5312 16.6172C33.5156 13.7812 35.7422 10.9219 37.2422 7.89843C37.3359 7.64062 37.4297 7.45312 37.5937 7.19531C37.6875 7.10156 37.6875 6.9375 37.7812 6.84375L37.875 6.65625C37.875 6.5625 37.9687 6.5625 37.9687 6.65625C38.5078 7.19531 39.0469 7.73437 39.5625 8.25C43.8281 12.5156 47.3906 17.0391 49.4297 20.0625C53.9531 26.5547 54.9375 33.0469 54.3984 38.6484V38.7422C54.1406 41.3203 53.7656 43.6406 53.25 45.7734C53.1562 45.9609 53.1562 46.2187 53.0625 46.4062C52.0781 50.7656 49.4297 59.0391 48.5391 63.6562C48.4453 64.3594 48.2812 64.8984 48.2812 65.4375C46.4062 61.0781 41.9766 51.9375 39.8437 47.3906C35.8125 39.1172 29.4141 25.4297 32.5312 16.6172ZM79.0312 86.4844C78.3281 86.4844 78.6797 86.4844 77.3437 86.4844C76.5469 86.4844 75.75 86.3906 74.9531 86.2969C73.3594 86.1094 71.6719 85.7578 70.0547 84.9609C68.4609 84.2578 67.2188 83.1797 65.8828 81.75C64.6406 80.3203 63.3047 78.6328 61.6172 77.3906C60.0234 76.1484 58.3359 75.2578 56.7187 74.625C55.125 73.9922 53.6953 73.5469 52.4531 73.1953C50.5781 72.75 49.2422 72.4922 48.7266 72.5625C48.9141 71.9297 49.0781 71.4141 49.0781 70.9687C49.2656 71.2266 49.4297 71.5078 49.7109 71.7656C50.0625 72.1172 50.6016 72.4687 51.0469 72.75C51.4922 72.9375 52.0312 73.1016 52.4766 73.1953C54.3516 73.5469 56.0391 73.3828 57.8906 73.1953C59.7656 73.0078 61.6172 72.6562 63.6797 72.3984C64.6641 72.3047 65.7187 72.2109 66.5156 72.3047C67.5937 72.3984 68.6484 72.6562 69.7266 72.9375C70.6172 73.125 71.5078 73.4766 72.4922 73.7344C72.4922 73.9219 72.4922 73.9922 72.6797 74.2734C72.9375 74.625 73.4766 75.0703 74.5547 75.7734C75 76.125 75.6328 76.5703 76.1484 77.2031C76.5937 77.8359 76.8516 78.3516 76.9453 79.7812C76.9453 80.4844 76.9453 81.375 77.2031 82.4531C77.3906 83.5312 77.8359 84.5859 78.4453 85.5703C78.6328 85.8281 78.7969 86.1094 78.9844 86.3672C78.8437 86.2266 78.9375 86.3906 79.0312 86.4844ZM86.3203 72.9844C83.3906 73.0781 80.7187 72.4453 78.1406 71.6484C74.5078 70.5 70.8516 69.1641 66.9375 68.7188C65.4375 68.625 64.3594 68.8125 63.3047 68.9062C59.5781 69.4453 55.4766 70.4062 53.0859 70.0547C52.7344 70.0547 52.5469 69.9609 52.3828 69.8672C52.2891 69.7734 52.125 69.7734 52.0312 69.6094C51.9375 69.5156 51.9375 69.5156 51.8437 69.4219C51.8437 69.4219 51.8437 69.3281 51.8437 69.2344C51.8437 68.9766 52.1016 68.5312 52.3828 68.1562C52.6406 67.8047 52.9219 67.4531 53.2734 67.0781C53.9062 66.375 54.6094 65.8359 55.1484 65.2969C57.5391 63.2578 58.9687 62.1797 59.5078 61.4766C60.0469 60.8437 60.0469 60.5859 59.9531 60.3984C60.1406 60.3984 60.3984 60.3047 60.9375 60.0469C61.8281 59.5078 63.2578 58.2656 66.2812 56.4141C67.6172 55.6172 69.2109 54.6328 71.25 53.7422C72.0469 53.4844 72.8437 53.2031 73.6406 53.0391C78.7969 51.9609 84.3047 52.9453 89.5547 53.9297C94.3594 54.8203 100.219 55.8047 105.117 54.9141C105.211 54.9141 107.437 54.375 107.25 54.4687H107.437C107.531 54.4687 107.531 54.5625 107.531 54.6562V54.75C107.531 54.9375 107.531 55.1016 107.625 55.2891C108 62.1328 98.6719 72.7969 86.3203 72.9844Z" fill="#218207"/>
</svg>
