<svg width="628" height="25" viewBox="0 0 628 25" fill="none" xmlns="http://www.w3.org/2000/svg">
<path d="M2.40534 12.5C-2.59142 0.961279 5.73651 0.961279 27.3891 12.5C49.9863 25.0455 58.3142 25.0455 52.3729 12.5C47.3762 -0.0454553 55.7041 -0.0454553 77.3567 12.5C98.1405 24.0387 106.468 24.0387 102.34 12.5C97.3437 0.961279 105.672 0.961279 127.324 12.5C146.434 21.3283 154.762 21.3283 152.308 12.5C147.311 3.67172 155.639 3.67172 177.292 12.5C203.788 25.2778 212.116 25.2778 202.276 12.5C197.279 -0.277778 205.607 -0.277778 227.259 12.5C245.172 20.8636 253.5 20.8636 252.243 12.5C247.246 4.13636 255.574 4.13636 277.227 12.5C302.789 23.8838 311.117 23.8838 302.211 12.5C297.214 1.11616 305.542 1.11616 327.195 12.5C352.382 27.601 360.71 27.601 352.178 12.5C347.182 -2.60101 355.51 -2.60101 377.162 12.5C397.871 26.2845 406.199 26.2845 402.146 12.5C397.149 -1.28451 405.477 -1.28451 427.13 12.5C444.281 20.5539 452.609 20.5539 452.113 12.5C447.117 4.44613 455.445 4.44613 477.097 12.5C508.535 27.8333 516.863 27.8333 502.081 12.5C497.084 -2.83333 505.412 -2.83333 527.065 12.5C547.351 25.8973 555.678 25.8973 552.049 12.5C547.052 -0.897307 555.38 -0.897307 577.032 12.5C596.62 23.3418 604.948 23.3418 602.016 12.5C597.019 1.65825 605.347 1.65825 627 12.5" stroke="#218207" stroke-width="2"/>
</svg>
